<svg xmlns="http://www.w3.org/2000/svg" viewBox="0 0 32 32" width="32" height="32">
  <defs>
    <linearGradient id="grad1" x1="0%" y1="0%" x2="100%" y2="100%">
      <stop offset="0%" style="stop-color:#3b82f6;stop-opacity:1" />
      <stop offset="100%" style="stop-color:#1e40af;stop-opacity:1" />
    </linearGradient>
  </defs>
  
  <!-- Background circle -->
  <circle cx="16" cy="16" r="15" fill="url(#grad1)" stroke="#1e3a8a" stroke-width="2"/>
  
  <!-- Scale of justice -->
  <g transform="translate(16, 16)">
    <!-- Base -->
    <rect x="-1" y="8" width="2" height="4" fill="#fbbf24"/>
    
    <!-- Scale beam -->
    <rect x="-8" y="6" width="16" height="1" fill="#fbbf24"/>
    
    <!-- Left scale pan -->
    <ellipse cx="-6" cy="4" rx="3" ry="1" fill="#fbbf24"/>
    <path d="M -9 4 L -6 4 L -6 6 L -3 4" stroke="#fbbf24" stroke-width="0.5" fill="none"/>
    
    <!-- Right scale pan -->
    <ellipse cx="6" cy="4" rx="3" ry="1" fill="#fbbf24"/>
    <path d="M 3 4 L 6 4 L 6 6 L 9 4" stroke="#fbbf24" stroke-width="0.5" fill="none"/>
    
    <!-- Central pillar -->
    <rect x="-0.5" y="-2" width="1" height="8" fill="#fbbf24"/>
    
    <!-- Top ornament -->
    <circle cx="0" cy="-3" r="1.5" fill="#fbbf24"/>
  </g>
  
  <!-- Decorative elements -->
  <circle cx="8" cy="8" r="1" fill="#fbbf24" opacity="0.6"/>
  <circle cx="24" cy="8" r="1" fill="#fbbf24" opacity="0.6"/>
  <circle cx="8" cy="24" r="1" fill="#fbbf24" opacity="0.6"/>
  <circle cx="24" cy="24" r="1" fill="#fbbf24" opacity="0.6"/>
</svg>
